<?xml version="1.0" standalone="no"?>
<!DOCTYPE svg PUBLIC "-//W3C//DTD SVG 20010904//EN"
 "http://www.w3.org/TR/2001/REC-SVG-20010904/DTD/svg10.dtd">
<svg version="1.0" xmlns="http://www.w3.org/2000/svg"
 width="900.000000pt" height="600.000000pt" viewBox="0 0 900.000000 600.000000"
 preserveAspectRatio="xMidYMid meet">

<g transform="translate(0.000000,600.000000) scale(0.100000,-0.100000)"
fill="#000000" stroke="none">
<path d="M2753 5986 c-135 -33 -242 -111 -453 -329 -91 -94 -269 -275 -395
-402 -127 -126 -251 -259 -276 -295 -132 -186 -160 -339 -90 -493 62 -137 204
-296 566 -630 99 -91 331 -317 515 -501 l335 -336 -661 -662 c-364 -365 -676
-685 -693 -711 -18 -27 -47 -78 -64 -115 -28 -61 -31 -76 -32 -168 0 -100 0
-101 47 -195 57 -115 134 -207 294 -352 65 -60 243 -234 394 -387 301 -305
373 -362 494 -395 128 -35 245 -7 398 96 40 27 297 275 716 693 l652 651 663
-661 c413 -412 684 -675 720 -698 182 -118 336 -126 505 -27 104 61 186 135
365 328 91 98 254 263 362 367 276 265 350 364 376 494 23 123 -5 230 -102
374 -27 40 -275 297 -693 716 l-651 652 661 663 c364 364 676 683 693 710 18
26 47 78 64 115 29 62 32 75 32 168 0 100 0 102 -47 195 -57 116 -132 205
-304 363 -71 65 -250 241 -399 391 -290 293 -348 340 -469 377 -131 40 -250
13 -408 -93 -40 -27 -297 -275 -716 -693 l-652 -651 -371 370 c-204 204 -465
472 -580 597 -116 125 -252 263 -303 305 -188 157 -335 207 -493 169z"/>
</g>
</svg>
